<svg width="102" height="65" viewBox="0 0 102 65" fill="none" xmlns="http://www.w3.org/2000/svg">
<path d="M63.11 0.894365V40.318H38.46V0.894365H63.11ZM64.11 0H37.46V41.2123H64.11V0Z" fill="black"/>
<path d="M50.15 33.2614C48.95 33.2614 47.79 32.9931 46.84 32.5012C44.46 31.2759 42.69 28.3692 44.86 23.8616C44.96 23.6559 45.22 23.5665 45.45 23.647C45.68 23.7364 45.78 23.969 45.69 24.1747C44.05 27.5912 44.65 30.4352 47.29 31.7947C49.57 32.9663 53.19 32.6532 55.29 30.1043C58.66 26.0081 54.35 22.6095 48.88 18.3166C48.21 17.7889 47.52 17.2434 46.83 16.6888C44.62 14.9091 43.54 13.0756 43.62 11.2511C43.73 8.83633 45.86 7.36063 45.95 7.29802C46.15 7.16387 46.43 7.19964 46.58 7.37851C46.73 7.55738 46.69 7.80781 46.5 7.94196C46.48 7.95091 44.62 9.25668 44.53 11.2958C44.46 12.8699 45.44 14.4798 47.44 16.0986C48.13 16.6531 48.81 17.1897 49.48 17.7174C55.06 22.1087 59.88 25.9008 56.02 30.5873C54.48 32.4476 52.25 33.2614 50.15 33.2614Z" fill="black"/>
<path d="M54.45 38.3235C54.31 38.3235 54.17 38.2699 54.09 38.1625C53.94 37.9837 53.99 37.7332 54.19 37.5991C54.22 37.5812 56.01 36.3738 56.24 34.4152C56.4 33.011 55.74 31.5532 54.27 30.0685C52.62 28.405 50.93 26.9919 49.44 25.7488C46.51 23.3071 44.19 21.3753 43.85 18.9695C43.34 15.4457 45.44 12.861 49.34 12.2349C51.42 11.895 54.6 12.7805 56.31 14.8465C57.37 16.1254 58.25 18.3345 56.41 21.5452C56.3 21.742 56.03 21.8225 55.8 21.7152C55.58 21.6168 55.49 21.3753 55.61 21.1696C56.9 18.9158 56.9 16.8946 55.59 15.3205C54.11 13.5317 51.28 12.7358 49.51 13.022C46.08 13.5765 44.3 15.7587 44.75 18.8622C45.06 20.9907 47.27 22.8242 50.06 25.1585C51.57 26.4106 53.27 27.8326 54.95 29.5319C56.6 31.1954 57.34 32.8679 57.14 34.5135C56.86 36.8299 54.81 38.1983 54.73 38.252C54.64 38.2967 54.55 38.3235 54.45 38.3235Z" fill="black"/>
<path d="M46.9 7.00288C46.9 7.00288 48.21 4.29296 52.23 6.15324C52.23 6.14429 49.45 9.93639 46.9 7.00288Z" fill="black"/>
<path d="M46.82 6.9044C46.82 6.9044 47.79 5.43764 49.3 5.3482C49.3 5.3482 49.72 3.90828 49.24 2.99603C49.24 2.98708 45.67 4.31968 46.82 6.9044Z" fill="black"/>
<path d="M47.53 2.89775C47.53 2.89775 47.76 3.60429 47.19 4.14091C46.63 4.67753 46.24 6.11746 46.71 7.00288C46.71 7.00288 45.4 5.17838 47.53 2.89775Z" fill="black"/>
<path d="M46.9 7.22647C46.9 7.22647 48.46 9.94534 51.83 7.84358C51.83 7.84358 51.38 7.459 50.93 7.65577C50.48 7.85253 48.48 9.09569 46.9 7.22647Z" fill="black"/>
<path d="M49.77 3.80999C49.77 3.80999 49.76 5.08893 49.47 5.36619C49.47 5.36619 50.65 5.27676 51.28 5.61661C51.28 5.61661 51.88 5.13366 51.8 4.0157C51.81 4.0157 50.76 3.47908 49.77 3.80999Z" fill="black"/>
<path d="M51.37 18.9426C51.37 18.9426 49.12 17.4312 51.67 15.1058C51.67 15.1058 51.8 15.9465 52.14 16.2595C52.48 16.5726 53.61 17.78 52.08 19.0321C52.08 19.0321 51.34 17.7531 51.47 16.5815C51.47 16.5815 51.16 18.3345 51.7 19.0947L51.37 18.9426Z" fill="black"/>
<path d="M52.32 26.6968C52.32 26.6968 50.48 25.2121 52.92 23.3519C52.92 23.3519 52.96 24.1031 53.23 24.3983C53.5 24.6934 54.38 25.8382 52.93 26.822C52.93 26.822 52.4 25.6414 52.61 24.6308C52.61 24.6308 52.18 26.1512 52.59 26.8488L52.32 26.6968Z" fill="black"/>
<path d="M54.97 36.4632C54.97 36.4632 56.76 34.6745 53.89 32.9216C53.89 32.9216 53.94 33.7265 53.69 34.0842C53.44 34.433 52.63 35.7478 54.32 36.66C54.32 36.66 54.74 35.3363 54.38 34.2721C54.38 34.2721 55.04 35.864 54.68 36.66L54.97 36.4632Z" fill="black"/>
<path d="M47.49 19.3988C47.49 19.3988 47.81 19.676 48.57 19.515C49.33 19.354 50.4 19.5776 50.64 20.2216C50.64 20.2216 49.77 20.2484 49.35 20.0785C49.35 20.0785 49.96 20.4362 50.5 20.4541C50.5 20.4541 48.5 22.0729 47.49 19.3988Z" fill="black"/>
<path d="M48.59 28.0026C48.59 28.0026 48.96 28.1904 49.6 27.8773C50.24 27.5643 51.27 27.5464 51.66 28.0741C51.66 28.0741 50.88 28.2798 50.45 28.2172C50.45 28.2172 51.1 28.414 51.59 28.3156C51.59 28.3245 50.22 30.2027 48.59 28.0026Z" fill="black"/>
<path d="M57.95 36.8657C57.95 36.8657 57.75 37.1072 57.15 37.0714C56.56 37.0356 55.78 37.3218 55.69 37.8316C55.69 37.8316 56.35 37.7511 56.64 37.5812C56.64 37.5812 56.23 37.9211 55.83 37.9926C55.83 38.0016 57.56 38.9943 57.95 36.8657Z" fill="black"/>
<path d="M8.49001 56.8816L8.5 56.8995H6.93L5.84 54.5026L4.74001 56.8726L4.75 56.8905H3.18L0 49.9771H1.57L4.49001 56.3271L5.58 53.957L3.75 49.9771H5.32L6.36 52.2488L7.41 49.9771H7.92001L6.62 52.8033L8.24001 56.3271L11.16 49.9771H11.67L8.49001 56.8816Z" fill="black"/>
<path d="M16.97 49.9055C17.52 49.9055 18.04 49.995 18.52 50.1828C19 50.3706 19.42 50.621 19.78 50.943C20.14 51.265 20.42 51.6406 20.63 52.0699C20.84 52.4992 20.94 52.9643 20.94 53.4562C20.94 53.9391 20.84 54.4042 20.63 54.8335C20.42 55.2628 20.14 55.6384 19.78 55.9604C19.42 56.2824 19 56.5328 18.52 56.7206C18.04 56.9084 17.52 57.0068 16.97 57.0068C16.43 57.0068 15.91 56.9084 15.43 56.7206C14.95 56.5328 14.53 56.2734 14.17 55.9604C13.81 55.6384 13.53 55.2628 13.32 54.8335C13.11 54.4042 13 53.9391 13 53.4562C13 52.9643 13.11 52.4992 13.32 52.0699C13.53 51.6406 13.82 51.265 14.17 50.943C14.53 50.621 14.95 50.3706 15.43 50.1828C15.91 49.995 16.42 49.9055 16.97 49.9055ZM19.42 55.6563C19.79 55.3254 20.03 55.0034 20.15 54.6904C20.27 54.3774 20.28 54.0643 20.21 53.7513C20.13 53.4383 19.97 53.1253 19.71 52.8122C19.46 52.4992 19.15 52.1772 18.77 51.8463C18.32 51.4439 17.89 51.1308 17.47 50.8893C17.05 50.6479 16.63 50.5316 16.21 50.5316C15.93 50.5316 15.65 50.5942 15.37 50.7105C15.09 50.8267 14.8 51.0146 14.52 51.2739C14.15 51.6048 13.91 51.9358 13.8 52.2488C13.69 52.5708 13.68 52.8838 13.76 53.2057C13.85 53.5277 14.02 53.8408 14.27 54.1627C14.53 54.4847 14.84 54.8067 15.21 55.1376C15.66 55.54 16.08 55.8531 16.49 56.0856C16.89 56.3181 17.3 56.4344 17.72 56.4344C18 56.4344 18.28 56.3718 18.56 56.2555C18.83 56.1124 19.12 55.9157 19.42 55.6563Z" fill="black"/>
<path d="M27.99 54.8245L29.55 56.9084H28.13L26.63 54.8961H24.73V56.9084H23.32V49.995H27.35C27.73 49.995 28.08 50.0576 28.42 50.1917C28.75 50.317 29.04 50.4958 29.29 50.7194C29.54 50.943 29.73 51.2024 29.88 51.4975C30.02 51.7927 30.1 52.1146 30.1 52.4545C30.1 52.7407 30.05 53.0179 29.94 53.2773C29.83 53.5367 29.69 53.7782 29.5 53.9839C29.31 54.1985 29.09 54.3684 28.84 54.5115C28.58 54.6546 28.3 54.7619 28 54.8245H27.99ZM26.75 54.431C27.44 54.431 27.94 54.2522 28.23 53.9034C28.52 53.5546 28.67 53.0627 28.67 52.4366C28.67 51.8105 28.52 51.3186 28.23 50.9698C27.94 50.621 27.44 50.4422 26.75 50.4422H24.73V54.431H26.75Z" fill="black"/>
<path d="M38.46 56.4523V56.9084H32.43V49.995H33.84V56.4523H38.46Z" fill="black"/>
<path d="M43.59 49.995C44.08 49.995 44.55 50.0844 45.01 50.2633C45.47 50.4422 45.89 50.6926 46.25 50.9967C46.61 51.3097 46.91 51.6764 47.13 52.0967C47.35 52.5171 47.46 52.9643 47.46 53.4472C47.46 53.9302 47.34 54.3774 47.09 54.7977C46.85 55.2181 46.54 55.5848 46.16 55.8978C45.78 56.2108 45.37 56.4523 44.91 56.6312C44.45 56.81 44.01 56.8995 43.58 56.8995H40.46V49.986H43.59V49.995ZM43.59 56.4255C44.09 56.4255 44.5 56.3539 44.82 56.2108C45.14 56.0677 45.39 55.862 45.57 55.6027C45.75 55.3433 45.88 55.0303 45.94 54.6636C46.01 54.2969 46.04 53.8944 46.04 53.4383C46.04 52.9911 46.01 52.5797 45.94 52.213C45.87 51.8463 45.75 51.5333 45.57 51.2739C45.39 51.0146 45.14 50.8178 44.82 50.6747C44.5 50.5316 44.09 50.4601 43.59 50.4601H41.88V56.4165H43.59V56.4255Z" fill="black"/>
<path d="M58.41 54.4221H54.84L53.7 56.8995H53.19L56.37 49.986H57.93L61.11 56.8995H59.54L58.41 54.4221ZM58.19 53.9481L56.63 50.5584L55.07 53.9481H58.19Z" fill="black"/>
<path d="M67.86 54.8245L69.42 56.9084H68L66.5 54.8961H64.6V56.9084H63.19V49.995H67.22C67.6 49.995 67.95 50.0576 68.29 50.1917C68.62 50.317 68.91 50.4958 69.16 50.7194C69.41 50.943 69.6 51.2024 69.75 51.4975C69.89 51.7927 69.97 52.1146 69.97 52.4545C69.97 52.7407 69.92 53.0179 69.81 53.2773C69.7 53.5367 69.56 53.7782 69.37 53.9839C69.18 54.1985 68.96 54.3684 68.71 54.5115C68.45 54.6546 68.17 54.7619 67.87 54.8245H67.86ZM66.62 54.431C67.31 54.431 67.81 54.2522 68.1 53.9034C68.39 53.5546 68.54 53.0627 68.54 52.4366C68.54 51.8105 68.39 51.3186 68.1 50.9698C67.81 50.621 67.31 50.4422 66.62 50.4422H64.6V54.431H66.62Z" fill="black"/>
<path d="M75.93 49.9055C76.48 49.9055 77 49.995 77.48 50.1828C77.96 50.3706 78.38 50.621 78.74 50.943C79.1 51.265 79.38 51.6406 79.59 52.0699C79.8 52.4992 79.9 52.9643 79.9 53.4562C79.9 53.9391 79.8 54.4042 79.59 54.8335C79.38 55.2628 79.1 55.6384 78.74 55.9604C78.38 56.2824 77.96 56.5328 77.48 56.7206C77 56.9084 76.48 57.0068 75.93 57.0068C75.39 57.0068 74.87 56.9084 74.39 56.7206C73.91 56.5328 73.49 56.2734 73.13 55.9604C72.77 55.6384 72.49 55.2628 72.28 54.8335C72.07 54.4042 71.96 53.9391 71.96 53.4562C71.96 52.9643 72.07 52.4992 72.28 52.0699C72.49 51.6406 72.78 51.265 73.13 50.943C73.49 50.621 73.91 50.3706 74.39 50.1828C74.87 49.995 75.38 49.9055 75.93 49.9055ZM78.38 55.6563C78.75 55.3254 78.99 55.0034 79.11 54.6904C79.23 54.3774 79.24 54.0643 79.17 53.7513C79.09 53.4383 78.93 53.1253 78.67 52.8122C78.42 52.4992 78.11 52.1772 77.73 51.8463C77.28 51.4439 76.85 51.1308 76.43 50.8893C76.01 50.6479 75.59 50.5316 75.17 50.5316C74.89 50.5316 74.61 50.5942 74.33 50.7105C74.05 50.8267 73.76 51.0146 73.48 51.2739C73.11 51.6048 72.87 51.9358 72.76 52.2488C72.65 52.5708 72.64 52.8838 72.72 53.2057C72.81 53.5277 72.98 53.8408 73.23 54.1627C73.49 54.4847 73.8 54.8067 74.17 55.1376C74.62 55.54 75.04 55.8531 75.45 56.0856C75.85 56.3181 76.26 56.4344 76.68 56.4344C76.96 56.4344 77.24 56.3718 77.52 56.2555C77.79 56.1124 78.08 55.9157 78.38 55.6563Z" fill="black"/>
<path d="M91.5698 49.995V56.9084H90.1598V51.0056L87.1698 56.9084H85.7598L82.7698 51.0056V56.9084H82.2598V49.995H83.6698L86.9198 56.4076L90.1498 49.995H91.5698Z" fill="black"/>
<path d="M98.85 54.4221H95.28L94.14 56.8995H93.63L96.81 49.986H98.37L101.55 56.8995H99.98L98.85 54.4221ZM98.63 53.9481L97.07 50.5584L95.51 53.9481H98.63Z" fill="black"/>
<path d="M24.71 61.6753V62.7307H26.11V62.9096H24.71V64.0901H24.18V61.4965H26.48V61.6753H24.71Z" fill="black"/>
<path d="M28.54 63.303L29.12 64.0811H28.59L28.03 63.3298H27.32V64.0811H26.79V61.4874H28.3C28.44 61.4874 28.58 61.5143 28.7 61.559C28.82 61.6037 28.93 61.6752 29.02 61.7557C29.11 61.8362 29.19 61.9346 29.24 62.0419C29.29 62.1492 29.32 62.2745 29.32 62.3997C29.32 62.507 29.3 62.6143 29.26 62.7127C29.22 62.8111 29.16 62.9005 29.1 62.981C29.03 63.0615 28.95 63.1241 28.85 63.1778C28.75 63.2404 28.65 63.2761 28.54 63.303ZM28.07 63.1599C28.33 63.1599 28.52 63.0973 28.62 62.9631C28.73 62.829 28.79 62.6501 28.79 62.4086C28.79 62.1671 28.73 61.9883 28.62 61.8541C28.51 61.7199 28.33 61.6574 28.07 61.6574H27.31V63.1509H28.07V63.1599Z" fill="black"/>
<path d="M31.45 63.1509H30.11L29.68 64.0811H29.49L30.68 61.4874H31.26L32.45 64.0811H31.86L31.45 63.1509ZM31.36 62.981L30.78 61.711L30.2 62.981H31.36Z" fill="black"/>
<path d="M35.32 62.8291V64.0902H34.79V63.9202C34.67 63.9829 34.55 64.0365 34.41 64.0723C34.28 64.1081 34.14 64.1259 33.99 64.1259C33.79 64.1259 33.59 64.0902 33.41 64.0186C33.23 63.9471 33.07 63.8487 32.94 63.7324C32.81 63.6162 32.7 63.4731 32.62 63.3121C32.54 63.1511 32.5 62.9812 32.5 62.7933C32.5 62.6055 32.54 62.4356 32.62 62.2746C32.7 62.1136 32.81 61.9705 32.94 61.8543C33.07 61.738 33.23 61.6396 33.41 61.5681C33.59 61.4965 33.78 61.4607 33.99 61.4607C34.13 61.4607 34.27 61.4786 34.4 61.5144C34.53 61.5502 34.65 61.5949 34.77 61.6575C34.88 61.7201 34.99 61.7917 35.08 61.8811C35.17 61.9705 35.25 62.06 35.31 62.1673H34.65C34.49 62.0242 34.33 61.9079 34.18 61.8185C34.03 61.729 33.88 61.6933 33.72 61.6933C33.61 61.6933 33.51 61.7112 33.4 61.7559C33.29 61.8006 33.19 61.8721 33.08 61.9705C32.94 62.0957 32.85 62.2209 32.81 62.3372C32.77 62.4535 32.76 62.5787 32.79 62.695C32.82 62.8112 32.88 62.9275 32.98 63.0527C33.07 63.169 33.19 63.2942 33.33 63.4194C33.5 63.5714 33.66 63.6877 33.81 63.7682C33.96 63.8487 34.11 63.8934 34.26 63.8934C34.35 63.8934 34.43 63.8755 34.52 63.8487C34.61 63.8219 34.7 63.7682 34.79 63.6967V62.9454H34.3V62.8291H35.32Z" fill="black"/>
<path d="M37.55 63.303L38.13 64.0811H37.6L37.04 63.3298H36.33V64.0811H35.8V61.4874H37.31C37.45 61.4874 37.59 61.5143 37.71 61.559C37.83 61.6037 37.94 61.6752 38.03 61.7557C38.12 61.8362 38.2 61.9346 38.25 62.0419C38.3 62.1492 38.33 62.2745 38.33 62.3997C38.33 62.507 38.31 62.6143 38.27 62.7127C38.23 62.8111 38.17 62.9005 38.11 62.981C38.04 63.0615 37.96 63.1241 37.86 63.1778C37.77 63.2404 37.66 63.2761 37.55 63.303ZM37.09 63.1599C37.35 63.1599 37.54 63.0973 37.64 62.9631C37.75 62.829 37.81 62.6501 37.81 62.4086C37.81 62.1671 37.75 61.9883 37.64 61.8541C37.53 61.7199 37.35 61.6574 37.09 61.6574H36.33V63.1509H37.09V63.1599Z" fill="black"/>
<path d="M40.46 63.1509H39.12L38.69 64.0811H38.5L39.69 61.4874H40.27L41.46 64.0811H40.87L40.46 63.1509ZM40.38 62.981L39.8 61.711L39.22 62.981H40.38Z" fill="black"/>
<path d="M44.08 61.4965V64.0901H43.55L41.98 61.7737V64.0901H41.79V61.4965H42.32L43.89 63.8129V61.4965H44.08Z" fill="black"/>
<path d="M47.06 63.4373H47.29C47.23 63.5357 47.15 63.634 47.06 63.7145C46.97 63.795 46.87 63.8755 46.76 63.9292C46.65 63.9918 46.53 64.0365 46.4 64.0723C46.27 64.1081 46.14 64.1259 46 64.1259C45.8 64.1259 45.6 64.0902 45.42 64.0186C45.24 63.9471 45.08 63.8487 44.95 63.7324C44.82 63.6162 44.71 63.4731 44.63 63.3121C44.55 63.1511 44.51 62.9812 44.51 62.7933C44.51 62.6055 44.55 62.4356 44.63 62.2746C44.71 62.1136 44.82 61.9705 44.95 61.8543C45.08 61.738 45.24 61.6396 45.42 61.5681C45.6 61.4965 45.79 61.4607 46 61.4607C46.14 61.4607 46.28 61.4786 46.41 61.5144C46.54 61.5502 46.66 61.5949 46.78 61.6575C46.89 61.7201 47 61.7917 47.09 61.8811C47.18 61.9705 47.26 62.06 47.32 62.1673H46.66C46.5 62.0242 46.34 61.9079 46.19 61.8185C46.04 61.729 45.89 61.6933 45.73 61.6933C45.62 61.6933 45.52 61.7112 45.41 61.7559C45.3 61.8006 45.2 61.8721 45.09 61.9705C44.95 62.0957 44.86 62.2209 44.82 62.3372C44.78 62.4535 44.77 62.5787 44.8 62.695C44.83 62.8112 44.89 62.9275 44.99 63.0527C45.08 63.169 45.2 63.2942 45.34 63.4194C45.51 63.5714 45.67 63.6877 45.82 63.7682C45.97 63.8576 46.12 63.8934 46.27 63.8934C46.35 63.8934 46.43 63.8845 46.5 63.8576C46.58 63.8308 46.65 63.795 46.72 63.7503C46.79 63.7056 46.85 63.6609 46.92 63.6072C46.97 63.5536 47.02 63.4999 47.06 63.4373Z" fill="black"/>
<path d="M48.21 61.6753V62.7307H49.61V62.9096H48.21V63.9113H49.98V64.0901H47.68V61.4965H49.98V61.6753H48.21Z" fill="black"/>
<path d="M53.1 63.1509H51.76L51.33 64.0811H51.14L52.33 61.4874H52.91L54.1 64.0811H53.51L53.1 63.1509ZM53.01 62.981L52.43 61.711L51.85 62.981H53.01Z" fill="black"/>
<path d="M56.71 61.4965V64.0901H56.18L54.61 61.7737V64.0901H54.42V61.4965H54.95L56.52 63.8129V61.4965H56.71Z" fill="black"/>
<path d="M58.44 61.4965C58.62 61.4965 58.8 61.5323 58.97 61.5949C59.14 61.6664 59.3 61.7558 59.43 61.8721C59.57 61.9884 59.68 62.1225 59.76 62.2835C59.84 62.4445 59.89 62.6144 59.89 62.7933C59.89 62.9722 59.84 63.1421 59.75 63.3031C59.66 63.4641 59.54 63.5982 59.4 63.7145C59.26 63.8308 59.1 63.9202 58.93 63.9917C58.76 64.0633 58.59 64.0901 58.43 64.0901H57.26V61.4965H58.44ZM58.44 63.9113C58.63 63.9113 58.78 63.8844 58.9 63.8308C59.02 63.7771 59.11 63.6966 59.18 63.5982C59.25 63.4999 59.29 63.3836 59.32 63.2494C59.34 63.1153 59.36 62.9632 59.36 62.7933C59.36 62.6234 59.35 62.4713 59.32 62.3372C59.3 62.203 59.25 62.0868 59.18 61.9884C59.11 61.89 59.02 61.8184 58.9 61.7648C58.78 61.7111 58.63 61.6843 58.44 61.6843H57.8V63.9202H58.44V63.9113Z" fill="black"/>
<path d="M63.07 63.1509H61.73L61.3 64.0811H61.11L62.3 61.4874H62.88L64.07 64.0811H63.48L63.07 63.1509ZM62.99 62.981L62.41 61.711L61.83 62.981H62.99Z" fill="black"/>
<path d="M66.15 63.303L66.73 64.0811H66.2L65.64 63.3298H64.93V64.0811H64.4V61.4874H65.91C66.05 61.4874 66.19 61.5143 66.31 61.559C66.43 61.6037 66.54 61.6752 66.63 61.7557C66.72 61.8362 66.8 61.9346 66.85 62.0419C66.9 62.1492 66.93 62.2745 66.93 62.3997C66.93 62.507 66.91 62.6143 66.87 62.7127C66.83 62.8111 66.77 62.9005 66.71 62.981C66.64 63.0615 66.56 63.1241 66.46 63.1778C66.36 63.2404 66.26 63.2761 66.15 63.303ZM65.68 63.1599C65.94 63.1599 66.13 63.0973 66.23 62.9631C66.34 62.829 66.4 62.6501 66.4 62.4086C66.4 62.1671 66.34 61.9883 66.23 61.8541C66.12 61.7199 65.94 61.6574 65.68 61.6574H64.92V63.1509H65.68V63.1599Z" fill="black"/>
<path d="M68.7 61.4607C68.91 61.4607 69.1 61.4965 69.28 61.5681C69.46 61.6396 69.62 61.729 69.75 61.8543C69.88 61.9705 69.99 62.1136 70.07 62.2746C70.15 62.4356 70.19 62.6145 70.19 62.7933C70.19 62.9722 70.15 63.1511 70.07 63.3121C69.99 63.4731 69.89 63.6162 69.75 63.7324C69.62 63.8487 69.46 63.9471 69.28 64.0186C69.1 64.0902 68.9 64.1259 68.7 64.1259C68.5 64.1259 68.3 64.0902 68.12 64.0186C67.94 63.9471 67.78 63.8487 67.65 63.7324C67.52 63.6162 67.41 63.4731 67.33 63.3121C67.25 63.1511 67.21 62.9812 67.21 62.7933C67.21 62.6055 67.25 62.4356 67.33 62.2746C67.41 62.1136 67.52 61.9705 67.65 61.8543C67.78 61.738 67.94 61.6396 68.12 61.5681C68.31 61.4965 68.5 61.4607 68.7 61.4607ZM69.62 63.6162C69.76 63.4909 69.85 63.3747 69.89 63.2495C69.93 63.1332 69.94 63.0169 69.91 62.9007C69.88 62.7844 69.82 62.6681 69.72 62.5519C69.63 62.4356 69.51 62.3104 69.37 62.1852C69.2 62.0331 69.04 61.9169 68.88 61.8274C68.72 61.738 68.56 61.6933 68.41 61.6933C68.3 61.6933 68.2 61.7112 68.09 61.7559C67.98 61.8006 67.88 61.8721 67.77 61.9705C67.63 62.0957 67.54 62.2209 67.5 62.3372C67.46 62.4535 67.45 62.5787 67.49 62.695C67.52 62.8112 67.59 62.9364 67.68 63.0527C67.78 63.169 67.89 63.2942 68.03 63.4194C68.2 63.5714 68.36 63.6877 68.51 63.7771C68.66 63.8666 68.81 63.9113 68.97 63.9113C69.08 63.9113 69.18 63.8845 69.29 63.8397C69.4 63.7861 69.51 63.7145 69.62 63.6162Z" fill="black"/>
<path d="M74.1 61.4965V64.0901H73.57V61.8811L72.45 64.0901H71.92L70.8 61.8811V64.0901H70.61V61.4965H71.14L72.36 63.9023L73.57 61.4965H74.1Z" fill="black"/>
<path d="M76.37 63.1509H75.03L74.6 64.0811H74.41L75.6 61.4874H76.18L77.37 64.0811H76.78L76.37 63.1509ZM76.29 62.981L75.71 61.711L75.13 62.981H76.29Z" fill="black"/>
</svg>
