<svg width="28" height="47" viewBox="0 0 28 47" fill="none" xmlns="http://www.w3.org/2000/svg">
<path d="M26.0602 1.88V45.96H1.41016V1.88H26.0602ZM27.0602 0.879997H0.410156V46.96H27.0602V0.879997Z" fill="white"/>
<path d="M13.1005 38.07C11.9005 38.07 10.7405 37.77 9.79053 37.22C7.41053 35.85 5.64054 32.6 7.81054 27.56C7.91054 27.33 8.17053 27.23 8.40053 27.32C8.63053 27.42 8.73054 27.68 8.64054 27.91C7.00054 31.73 7.60054 34.91 10.2405 36.43C12.5205 37.74 16.1405 37.39 18.2405 34.54C21.6105 29.96 17.3005 26.16 11.8305 21.36C11.1605 20.77 10.4705 20.16 9.78054 19.54C7.57054 17.55 6.49055 15.5 6.57055 13.46C6.68055 10.76 8.81053 9.11 8.90053 9.04C9.10053 8.89 9.38054 8.93 9.53054 9.13C9.68054 9.33 9.64054 9.61 9.45054 9.76C9.43054 9.77 7.57053 11.23 7.48053 13.51C7.41053 15.27 8.39054 17.07 10.3905 18.88C11.0805 19.5 11.7605 20.1 12.4305 20.69C18.0105 25.6 22.8305 29.84 18.9705 35.08C17.4305 37.16 15.2005 38.07 13.1005 38.07Z" fill="white"/>
<path d="M17.4001 43.73C17.2601 43.73 17.1201 43.67 17.0401 43.55C16.8901 43.35 16.9401 43.07 17.1401 42.92C17.1701 42.9 18.9601 41.55 19.1901 39.36C19.3501 37.79 18.6901 36.16 17.2201 34.5C15.5701 32.64 13.8801 31.06 12.3901 29.67C9.46012 26.94 7.14012 24.78 6.80012 22.09C6.29012 18.15 8.39011 15.26 12.2901 14.56C14.3701 14.18 17.5501 15.17 19.2601 17.48C20.3201 18.91 21.2001 21.38 19.3601 24.97C19.2501 25.19 18.9801 25.28 18.7501 25.16C18.5301 25.05 18.4401 24.78 18.5601 24.55C19.8501 22.03 19.8501 19.77 18.5401 18.01C17.0601 16.01 14.2301 15.12 12.4601 15.44C9.03013 16.06 7.25012 18.5 7.70012 21.97C8.01012 24.35 10.2201 26.4 13.0101 29.01C14.5201 30.41 16.2201 32 17.9001 33.9C19.5501 35.76 20.2901 37.63 20.0901 39.47C19.8101 42.06 17.7601 43.59 17.6801 43.65C17.5901 43.7 17.5001 43.73 17.4001 43.73Z" fill="white"/>
<path d="M9.85059 8.71C9.85059 8.71 11.1606 5.68 15.1806 7.76C15.1806 7.75 12.4006 11.99 9.85059 8.71Z" fill="white"/>
<path d="M9.77022 8.6C9.77022 8.6 10.7402 6.96 12.2502 6.86C12.2502 6.86 12.6702 5.25 12.1902 4.23C12.1902 4.22 8.62022 5.71 9.77022 8.6Z" fill="white"/>
<path d="M10.4803 4.12C10.4803 4.12 10.7103 4.91 10.1403 5.51C9.58027 6.11 9.19028 7.72 9.66028 8.71C9.66028 8.71 8.35027 6.67 10.4803 4.12Z" fill="white"/>
<path d="M9.85059 8.96C9.85059 8.96 11.4106 12 14.7806 9.65C14.7806 9.65 14.3306 9.22 13.8806 9.44C13.4306 9.66 11.4306 11.05 9.85059 8.96Z" fill="white"/>
<path d="M12.7209 5.14C12.7209 5.14 12.7109 6.57 12.4209 6.88C12.4209 6.88 13.6009 6.78 14.2309 7.16C14.2309 7.16 14.8309 6.62 14.7509 5.37C14.7609 5.37 13.7109 4.77 12.7209 5.14Z" fill="white"/>
<path d="M14.321 22.06C14.321 22.06 12.071 20.37 14.621 17.77C14.621 17.77 14.751 18.71 15.091 19.06C15.431 19.41 16.561 20.76 15.031 22.16C15.031 22.16 14.291 20.73 14.421 19.42C14.421 19.42 14.111 21.38 14.651 22.23L14.321 22.06Z" fill="white"/>
<path d="M15.2708 30.73C15.2708 30.73 13.4308 29.07 15.8708 26.99C15.8708 26.99 15.9108 27.83 16.1808 28.16C16.4508 28.49 17.3308 29.77 15.8808 30.87C15.8808 30.87 15.3508 29.55 15.5608 28.42C15.5608 28.42 15.1308 30.12 15.5408 30.9L15.2708 30.73Z" fill="white"/>
<path d="M17.9206 41.65C17.9206 41.65 19.7106 39.65 16.8406 37.69C16.8406 37.69 16.8906 38.59 16.6406 38.99C16.3906 39.38 15.5806 40.85 17.2706 41.87C17.2706 41.87 17.6906 40.39 17.3306 39.2C17.3306 39.2 17.9906 40.98 17.6306 41.87L17.9206 41.65Z" fill="white"/>
<path d="M10.4404 22.57C10.4404 22.57 10.7604 22.88 11.5204 22.7C12.2804 22.52 13.3504 22.77 13.5904 23.49C13.5904 23.49 12.7204 23.52 12.3004 23.33C12.3004 23.33 12.9104 23.73 13.4504 23.75C13.4504 23.75 11.4504 25.56 10.4404 22.57Z" fill="white"/>
<path d="M11.541 32.19C11.541 32.19 11.911 32.4 12.551 32.05C13.191 31.7 14.221 31.68 14.611 32.27C14.611 32.27 13.831 32.5 13.401 32.43C13.401 32.43 14.051 32.65 14.541 32.54C14.541 32.55 13.171 34.65 11.541 32.19Z" fill="white"/>
<path d="M20.9006 42.1C20.9006 42.1 20.7006 42.37 20.1006 42.33C19.5106 42.29 18.7306 42.61 18.6406 43.18C18.6406 43.18 19.3006 43.09 19.5906 42.9C19.5906 42.9 19.1806 43.28 18.7806 43.36C18.7806 43.37 20.5106 44.48 20.9006 42.1Z" fill="white"/>
</svg>
